<svg xmlns="http://www.w3.org/2000/svg" xmlns:xlink="http://www.w3.org/1999/xlink" version="1.1" x="0px" y="0px" viewBox="0 0 100 125" enable-background="new 0 0 100 100" xml:space="preserve"><g><rect x="22.713" y="67.203" fill-rule="evenodd" clip-rule="evenodd" width="54.096" height="9.104"/><path fill-rule="evenodd" clip-rule="evenodd" d="M82.519,31.607c-2.231,0-4.052,1.82-4.052,4.052c0,0.997,0.377,1.9,0.979,2.608   L67.121,49.27l-0.812-0.184l-8.174-9.601L52.18,32.49c1.324-0.852,2.21-2.33,2.21-4.017c0-2.633-2.147-4.78-4.781-4.78   c-2.633,0-4.781,2.147-4.781,4.78c0,1.687,0.886,3.165,2.21,4.017l-5.957,6.996l-8.331,9.784L20.514,38.344   c0.626-0.713,1.02-1.636,1.02-2.656c0-2.231-1.82-4.052-4.052-4.052c-2.231,0-4.051,1.82-4.051,4.052s1.82,4.051,4.051,4.051   c0.251,0,0.496-0.03,0.735-0.074l4.49,23.955h2.074h33.782h16.182h0.348h1.726h0.349l4.499-24.003   c0.276,0.06,0.561,0.095,0.854,0.095c2.231,0,4.052-1.82,4.052-4.052S84.75,31.607,82.519,31.607z"/></g></svg>
